<svg width="977" height="446" viewBox="0 0 977 446" fill="none" xmlns="http://www.w3.org/2000/svg">
<path d="M332.022 66.0223C352.637 45.4077 377.11 29.0553 404.044 17.8988C430.979 6.74221 459.846 1.00001 489 1C518.153 0.999993 547.021 6.74219 573.956 17.8987C600.89 29.0553 625.363 45.4077 645.978 66.0223" stroke="white" stroke-opacity="0.35" stroke-width="2"/>
<path d="M645.978 379.978C625.363 400.592 600.89 416.945 573.956 428.101C547.021 439.258 518.153 445 489 445C459.847 445 430.979 439.258 404.044 428.101C377.11 416.945 352.637 400.592 332.022 379.978" stroke="white" stroke-opacity="0.35" stroke-width="2"/>
<path d="M1 264C3.19098 292.786 14.0097 354.229 39.8265 373.137C40.6235 373.721 41.5874 374 42.5753 374H297" stroke="white" stroke-opacity="0.35" stroke-width="2"/>
<path d="M1 181C3.19098 152.214 14.0097 90.7705 39.8265 71.8632C40.6235 71.2795 41.5874 71 42.5753 71H297" stroke="white" stroke-opacity="0.35" stroke-width="2"/>
<path d="M976 264C974.014 292.719 964.223 353.942 940.88 373.003C940.055 373.676 939.02 374 937.955 374H707" stroke="white" stroke-opacity="0.35" stroke-width="2"/>
<path d="M976 181C974.014 152.281 964.223 91.0584 940.88 71.9969C940.055 71.3235 939.02 71 937.955 71H707" stroke="white" stroke-opacity="0.35" stroke-width="2"/>
<rect x="463" y="206" width="52" height="33" rx="9" stroke="white" stroke-opacity="0.75" stroke-width="2"/>
<rect x="485" y="218.5" width="8" height="8" rx="4" fill="#D9D9D9"/>
</svg>
