<svg width="20" height="21" viewBox="0 0 20 21" fill="none" xmlns="http://www.w3.org/2000/svg">
<path d="M10.1137 8.39132C10.4438 8.39132 10.7584 8.46032 11.0444 8.58445C11.0658 8.11776 11.2267 7.68619 11.4848 7.32893C11.3031 7.29096 11.1157 7.27075 10.9238 7.27075H9.10561C8.91412 7.27075 8.72671 7.29076 8.54645 7.32832C8.82144 7.70988 8.98578 8.17554 8.98843 8.67978C9.32262 8.49605 9.70601 8.39132 10.1137 8.39132Z" fill="white" fill-opacity="0.25"/>
<path d="M10.0143 7.12459C11.1977 7.12459 12.157 6.16525 12.157 4.98185C12.157 3.79845 11.1977 2.83911 10.0143 2.83911C8.83086 2.83911 7.87152 3.79845 7.87152 4.98185C7.87152 6.16525 8.83086 7.12459 10.0143 7.12459Z" fill="white" fill-opacity="0.25"/>
<path d="M13.3797 10.7809C14.4702 10.7809 15.3538 9.89691 15.3538 8.80676C15.3538 7.7162 14.4702 6.83264 13.3797 6.83264C12.2993 6.83264 11.4233 7.70048 11.407 8.77695C12.0294 9.16728 12.4659 9.8275 12.5455 10.5939C12.7991 10.7127 13.081 10.7809 13.3797 10.7809Z" fill="white" fill-opacity="0.25"/>
<path d="M6.64931 6.83246C5.55854 6.83246 4.67499 7.71622 4.67499 8.80657C4.67499 9.89693 5.55854 10.7805 6.64931 10.7805C7.03555 10.7805 7.39465 10.6676 7.69924 10.4759C7.79621 9.84487 8.13449 9.29306 8.6177 8.91742C8.61975 8.88047 8.62322 8.84393 8.62322 8.80657C8.62322 7.71622 7.73925 6.83246 6.64931 6.83246Z" fill="white" fill-opacity="0.25"/>
<path d="M14.6619 6.79042C15.2844 7.18075 15.7208 7.84096 15.8003 8.60754C16.0536 8.72615 16.3357 8.79454 16.6344 8.79454C17.725 8.79454 18.6085 7.91078 18.6085 6.82043C18.6085 5.73007 17.725 4.84631 16.6344 4.84631C15.5543 4.84611 14.6783 5.71415 14.6619 6.79042Z" fill="white" fill-opacity="0.25"/>
<path d="M10.1137 12.8191C11.2041 12.8191 12.088 11.9352 12.088 10.8448C12.088 9.75442 11.2041 8.87048 10.1137 8.87048C9.02334 8.87048 8.1394 9.75442 8.1394 10.8448C8.1394 11.9352 9.02334 12.8191 10.1137 12.8191Z" fill="white" fill-opacity="0.25"/>
<path d="M14.2175 10.9154H12.5549C12.5367 11.5805 12.253 12.1795 11.8038 12.61C13.0426 12.9787 13.9492 14.1277 13.9492 15.4849V16.1161C15.5906 16.0555 16.5366 15.5908 16.5989 15.559L16.7307 15.492H16.7444V13.4432C16.7448 12.0492 15.611 10.9154 14.2175 10.9154Z" fill="white" fill-opacity="0.25"/>
<path d="M17.4721 8.92908H15.8099C15.7919 9.59419 15.5079 10.1932 15.059 10.6237C16.2978 10.9924 17.2042 12.1411 17.2042 13.4983V14.1296C18.8454 14.0691 19.7916 13.6045 19.8539 13.5724L19.9857 13.5057H19.9998V11.4568C19.9998 10.0631 18.866 8.92908 17.4721 8.92908Z" fill="white" fill-opacity="0.25"/>
<path d="M8.42237 12.6099C7.97549 12.1813 7.69254 11.5856 7.67172 10.9248C7.61027 10.9203 7.54923 10.9152 7.48635 10.9152H5.81172C4.4178 10.9152 3.28375 12.0493 3.28375 13.4432V15.4922L3.28886 15.5239L3.42992 15.5684C4.49701 15.9017 5.44956 16.0549 6.27657 16.1034V15.4847C6.27698 14.1277 7.18319 12.9788 8.42237 12.6099Z" fill="white" fill-opacity="0.25"/>
<path d="M10.9511 12.9536H9.27589C7.88197 12.9536 6.74792 14.0881 6.74792 15.4814V17.5304L6.75323 17.5625L6.89409 17.6066C8.22433 18.022 9.38001 18.1608 10.3309 18.1608C12.1889 18.1608 13.2656 17.6311 13.3321 17.5974L13.464 17.5304H13.4779V15.4814C13.4785 14.0877 12.3446 12.9536 10.9511 12.9536Z" fill="white" fill-opacity="0.25"/>
<path d="M3.36561 8.85743C3.66428 8.85743 3.94621 8.78904 4.19976 8.67043C4.27938 7.90385 4.71565 7.24343 5.3381 6.8531C5.32176 5.77704 4.44576 4.909 3.36561 4.909C2.27485 4.909 1.3913 5.79275 1.3913 6.88331C1.3913 7.97367 2.27485 8.85743 3.36561 8.85743Z" fill="white" fill-opacity="0.25"/>
<path d="M4.9408 10.6868C4.49208 10.2563 4.20811 9.65708 4.19014 8.99176H2.52776C1.13384 8.99196 0 10.126 0 11.5197V13.5688H0.0140862L0.145966 13.6355C0.208435 13.667 1.15425 14.1322 2.79561 14.1924V13.5612C2.79561 12.2042 3.70182 11.0553 4.9408 10.6868Z" fill="white" fill-opacity="0.25"/>
<path d="M5.67451 6.63731C5.91132 6.54136 6.27267 6.42357 6.61768 6.42357C7.01924 6.42357 7.41202 6.52687 7.76234 6.72346C7.84032 6.64691 7.91177 6.56361 7.97669 6.4744C7.64393 6.03732 7.46224 5.50164 7.46224 4.95064C7.46224 4.5795 7.54512 4.21121 7.70313 3.87662C7.34342 3.55161 6.8845 3.37421 6.39679 3.37421C5.50915 3.37421 4.73645 3.97501 4.51025 4.82121C5.17333 5.20705 5.60531 5.88156 5.67451 6.63731Z" fill="white" fill-opacity="0.25"/>
<path d="M12.0686 6.3627C12.1372 6.47171 12.2174 6.5744 12.3085 6.66994C12.6327 6.50825 12.9891 6.42333 13.348 6.42333C13.701 6.42333 14.0392 6.51356 14.261 6.5891C14.3304 5.76985 14.8258 5.04676 15.5675 4.68031C15.2956 3.90353 14.5594 3.37335 13.7259 3.37335C13.1869 3.37335 12.6766 3.59465 12.3081 3.98416C12.4375 4.29284 12.503 4.61723 12.503 4.94979C12.5028 5.45914 12.353 5.9446 12.0686 6.3627Z" fill="white" fill-opacity="0.25"/>
</svg>
