<svg width="20" height="21" viewBox="0 0 20 21" fill="none" xmlns="http://www.w3.org/2000/svg">
<path d="M10.0031 1.90265C5.40638 1.90265 3.24451 5.7528 3.24451 10.502C3.24451 15.2512 6.56701 19.1016 10.0031 19.1016C13.4392 19.1016 16.7617 15.2514 16.7617 10.502C16.7617 5.75265 14.6 1.90265 10.0031 1.90265ZM8.98435 12.0536C9.00395 12.0307 9.02786 12.012 9.05472 11.9984C9.08157 11.9848 9.11084 11.9766 9.14086 11.9744C9.17087 11.9721 9.20104 11.9758 9.22963 11.9852C9.25822 11.9946 9.28467 12.0096 9.30748 12.0292C9.78513 12.44 10.2294 12.4401 10.7078 12.0292C10.7539 11.9896 10.8138 11.9699 10.8745 11.9744C10.9351 11.979 10.9914 12.0075 11.0311 12.0536C11.0707 12.0997 11.0904 12.1596 11.0858 12.2203C11.0813 12.2809 11.0528 12.3372 11.0067 12.3769C10.7361 12.6344 10.3809 12.7843 10.0076 12.7987C9.63436 12.7844 9.27914 12.6344 9.00857 12.3769C8.98575 12.3572 8.96702 12.3333 8.95346 12.3064C8.93989 12.2795 8.93175 12.2503 8.9295 12.2202C8.92725 12.1902 8.93094 12.1601 8.94035 12.1315C8.94976 12.1029 8.96471 12.0764 8.98435 12.0536ZM5.21294 10.0953C5.21294 9.30343 6.04373 8.66156 7.06841 8.66156C8.0931 8.66156 8.92373 9.30343 8.92373 10.0953C8.92373 10.8872 8.09373 11.5291 7.06841 11.5291C6.0431 11.5291 5.21294 10.887 5.21294 10.0953ZM12.0781 15.4189C11.8139 15.7011 11.4925 15.9238 11.1355 16.072C10.7784 16.2201 10.3939 16.2905 10.0075 16.2783C9.62105 16.2905 9.23646 16.2202 8.87938 16.072C8.52229 15.9238 8.20091 15.7011 7.93669 15.4189C7.90871 15.3878 7.88755 15.3512 7.87458 15.3115C7.86161 15.2717 7.85713 15.2297 7.86141 15.1881C7.8657 15.1465 7.87866 15.1063 7.89946 15.07C7.92026 15.0337 7.94843 15.0022 7.98216 14.9775C8.53529 14.5691 9.0206 14.1848 9.47763 14.1848C9.61062 14.1786 9.7422 14.2143 9.85373 14.287C9.89943 14.3168 9.95283 14.3327 10.0074 14.3327C10.062 14.3327 10.1154 14.3168 10.1611 14.287C10.2726 14.2143 10.4042 14.1786 10.5372 14.1848C10.9942 14.1848 11.4795 14.5691 12.0326 14.9775C12.0664 15.0022 12.0945 15.0337 12.1153 15.07C12.1361 15.1063 12.1491 15.1465 12.1534 15.1881C12.1577 15.2297 12.1532 15.2717 12.1402 15.3115C12.1272 15.3512 12.1061 15.3878 12.0781 15.4189ZM12.9469 11.5291C11.9222 11.5291 11.0915 10.887 11.0915 10.0953C11.0915 9.30359 11.9222 8.66156 12.9469 8.66156C13.9715 8.66156 14.8023 9.30343 14.8023 10.0953C14.8023 10.8872 13.972 11.5291 12.9473 11.5291H12.9469Z" fill="white" fill-opacity="0.25"/>
<path d="M10.6508 15.4096H9.36481C9.29946 15.4096 9.23679 15.3836 9.19058 15.3374C9.14437 15.2912 9.11841 15.2285 9.11841 15.1632C9.11841 15.0978 9.14437 15.0351 9.19058 14.9889C9.23679 14.9427 9.29946 14.9167 9.36481 14.9167H10.6508C10.7161 14.9167 10.7788 14.9427 10.825 14.9889C10.8712 15.0351 10.8972 15.0978 10.8972 15.1632C10.8972 15.2285 10.8712 15.2912 10.825 15.3374C10.7788 15.3836 10.7161 15.4096 10.6508 15.4096Z" fill="white" fill-opacity="0.25"/>
<path d="M17.1497 17.0174L17.3469 17.3782C17.3812 17.4408 17.4328 17.4924 17.4955 17.5267L17.8563 17.7241C17.9152 17.7562 17.9645 17.8036 17.9988 17.8614C18.0331 17.9191 18.0512 17.985 18.0512 18.0522C18.0512 18.1194 18.0331 18.1853 17.9988 18.2431C17.9645 18.3008 17.9152 18.3482 17.8563 18.3803L17.4955 18.5777C17.4328 18.612 17.3812 18.6636 17.3469 18.7263L17.1497 19.0871C17.1175 19.146 17.0701 19.1952 17.0124 19.2295C16.9546 19.2638 16.8887 19.2819 16.8216 19.2819C16.7544 19.2819 16.6885 19.2638 16.6308 19.2295C16.573 19.1952 16.5256 19.146 16.4934 19.0871L16.2961 18.7263C16.2618 18.6635 16.2102 18.612 16.1475 18.5777L15.7867 18.3803C15.7278 18.3482 15.6786 18.3008 15.6443 18.243C15.61 18.1853 15.5919 18.1194 15.5919 18.0522C15.5919 17.9851 15.61 17.9192 15.6443 17.8614C15.6786 17.8037 15.7278 17.7562 15.7867 17.7241L16.1475 17.5267C16.2102 17.4925 16.2618 17.4409 16.2961 17.3782L16.4934 17.0174C16.5256 16.9584 16.573 16.9092 16.6308 16.8749C16.6885 16.8407 16.7544 16.8226 16.8216 16.8226C16.8887 16.8226 16.9546 16.8407 17.0124 16.8749C17.0701 16.9092 17.1175 16.9584 17.1497 17.0174Z" fill="white" fill-opacity="0.25"/>
<path d="M2.01747 3.38187L2.21481 3.74265C2.24911 3.80534 2.30069 3.85686 2.36341 3.89109L2.72419 4.08843C2.78314 4.12058 2.83234 4.16802 2.86662 4.22576C2.9009 4.2835 2.91899 4.34941 2.91899 4.41656C2.91899 4.4837 2.9009 4.54961 2.86662 4.60735C2.83234 4.66509 2.78314 4.71253 2.72419 4.74468L2.36341 4.94203C2.30069 4.97626 2.24911 5.02778 2.21481 5.09046L2.01747 5.45124C1.98536 5.51024 1.93793 5.55948 1.88019 5.59379C1.82244 5.62811 1.75652 5.64621 1.68935 5.64621C1.62218 5.64621 1.55625 5.62811 1.49851 5.59379C1.44076 5.55948 1.39334 5.51024 1.36122 5.45124L1.1645 5.08999C1.13012 5.02737 1.07857 4.97587 1.01591 4.94156L0.655127 4.74421C0.596176 4.71206 0.546975 4.66462 0.512696 4.60688C0.478417 4.54914 0.460327 4.48324 0.460327 4.41609C0.460327 4.34894 0.478417 4.28303 0.512696 4.22529C0.546975 4.16755 0.596176 4.12011 0.655127 4.08796L1.0156 3.89062C1.07826 3.8563 1.12981 3.8048 1.16419 3.74218L1.36153 3.3814C1.39372 3.32251 1.44117 3.27337 1.4989 3.23915C1.55664 3.20493 1.62253 3.1869 1.68964 3.18695C1.75675 3.187 1.82262 3.20512 1.8803 3.23942C1.93799 3.27372 1.98537 3.32293 2.01747 3.38187Z" fill="white" fill-opacity="0.25"/>
<path d="M3.78608 0.981851L3.91499 1.21748C3.93737 1.25845 3.97105 1.29213 4.01202 1.31451L4.24765 1.44341C4.28612 1.46442 4.31822 1.49539 4.34059 1.53309C4.36296 1.57078 4.37476 1.6138 4.37476 1.65763C4.37476 1.70146 4.36296 1.74448 4.34059 1.78218C4.31822 1.81987 4.28612 1.85085 4.24765 1.87185L4.01202 2.00076C3.97105 2.02313 3.93737 2.05681 3.91499 2.09779L3.78608 2.33341C3.76508 2.37188 3.73411 2.40399 3.69641 2.42636C3.65872 2.44872 3.6157 2.46053 3.57186 2.46053C3.52803 2.46053 3.48501 2.44872 3.44732 2.42636C3.40962 2.40399 3.37865 2.37188 3.35765 2.33341L3.22874 2.09779C3.20636 2.05681 3.17268 2.02313 3.13171 2.00076L2.89593 1.87185C2.8575 1.85081 2.82544 1.81983 2.8031 1.78214C2.78077 1.74445 2.76898 1.70144 2.76898 1.65763C2.76898 1.61382 2.78077 1.57082 2.8031 1.53313C2.82544 1.49544 2.8575 1.46445 2.89593 1.44341L3.13171 1.31451C3.17268 1.29213 3.20636 1.25845 3.22874 1.21748L3.35765 0.981851C3.37865 0.94338 3.40962 0.911274 3.44732 0.888907C3.48501 0.86654 3.52803 0.854736 3.57186 0.854736C3.6157 0.854736 3.65872 0.86654 3.69641 0.888907C3.73411 0.911274 3.76508 0.94338 3.78608 0.981851Z" fill="white" fill-opacity="0.25"/>
</svg>
