<svg width="20" height="21" viewBox="0 0 20 21" fill="none" xmlns="http://www.w3.org/2000/svg">
<path d="M19.3195 0.813821C19.0826 0.598197 18.7135 0.619017 18.487 0.84554L18.3077 1.02488L17.9056 0.622806C17.7562 0.473431 17.513 0.455697 17.3543 0.59515C17.1804 0.747923 17.174 1.01308 17.335 1.17413L17.7467 1.58581L17.0753 2.25726L16.8367 2.0187C16.6044 1.78632 16.2276 1.78632 15.9953 2.0187L11.7506 6.26339C11.5823 6.43171 11.5366 6.67558 11.6121 6.88562L11.1891 7.30863C11.124 7.28468 11.0548 7.27148 10.9841 7.27148C10.8263 7.27148 10.6749 7.33417 10.5634 7.44574L9.89737 8.11175L9.26979 7.48417C8.92589 7.14023 8.38225 7.11257 8.00526 7.4198L5.57776 9.39753C5.37096 9.56601 5.2446 9.81542 5.23104 10.0818C5.21749 10.3482 5.31788 10.6092 5.50647 10.7978L6.35893 11.6502L5.69292 12.3162C5.58135 12.4278 5.51866 12.5792 5.51866 12.7369C5.51866 12.809 5.53233 12.8794 5.5571 12.9455L5.14538 13.3523C4.9353 13.2768 4.69143 13.3225 4.52315 13.4909L0.659713 17.3543C0.423268 17.5907 0.428033 17.9755 0.670299 18.206L2.90905 20.336C3.17108 20.5853 3.59303 20.5451 3.80327 20.2509L6.98448 15.7979C7.14647 15.5616 7.11706 15.2434 6.91444 15.0408L6.59034 14.7167L6.92081 14.3855L7.44397 14.9087L8.43952 17.8746C8.5226 18.1221 8.75362 18.2803 9.00331 18.2803C9.05503 18.2803 9.10756 18.2735 9.15979 18.2594L11.7142 17.5643C11.9077 17.5116 12.0692 17.3709 12.1342 17.1812C12.2265 16.9115 12.117 16.6228 11.8828 16.4792L11.6362 16.328L10.8685 13.5066L11.5631 12.9171C12.6142 13.6625 13.8785 14.0703 15.1785 14.0703C15.3996 14.0703 15.6219 14.0585 15.8442 14.0346C16.0636 14.011 16.2508 13.865 16.3309 13.6594L17.0088 11.919C17.0842 11.7255 17.0532 11.5066 16.927 11.3416C16.8008 11.1766 16.5978 11.0893 16.3912 11.1115C15.3839 11.219 14.3807 11.0187 13.5057 10.5597C13.5098 10.5201 13.513 10.4803 13.5147 10.4403C13.5367 9.90019 13.3301 9.37113 12.9479 8.98886L12.633 8.67402L12.9764 8.33066L13.5654 8.91964C13.6773 9.03156 13.8288 9.0939 13.986 9.0939C13.9984 9.0939 14.0108 9.09351 14.0232 9.09273C14.1935 9.0821 14.3511 8.99878 14.4558 8.86398L18.1681 4.08683C18.3522 3.84995 18.3311 3.51316 18.119 3.30105L17.9166 3.09867L19.3403 1.67503C19.5794 1.43597 19.5724 1.04402 19.3195 0.813821ZM8.86456 12.5802L8.55979 12.885C8.48233 12.9624 8.38085 13.0011 8.27932 13.0011C8.1778 13.0011 8.07628 12.9624 7.99885 12.885C7.84397 12.7301 7.84397 12.4789 7.99889 12.324L8.30366 12.0193C8.45858 11.8644 8.70975 11.8644 8.8646 12.0193C9.01948 12.1742 9.01948 12.4253 8.86456 12.5802ZM7.20034 10.8088L6.53999 10.1485L8.58506 8.4823L9.05596 8.9532L7.20034 10.8088Z" fill="white" fill-opacity="0.25"/>
</svg>
